# xmcd CD database file
#
# Track frame offsets:
#	150
#	15648
#	37338
#	53391
#	69366
#	88940
#	107055
#	129554
#	147211
#	165933
#	180385
#	199134
#
# Disc length: 2883 seconds
#
# Revision: 0
# Processed by: cddbd v1.4PL0 Copyright (c) Steve Scherf et al.
# Submitted via: CDex 1.50
#
DISCID=9c0b410c
DTITLE=Giovanni - My Valentine - Disc 3
DYEAR=1900
DGENRE=New Age
TTITLE0=The Greatest Love Of All
TTITLE1=Sacristy
TTITLE2=Around The World
TTITLE3=What Are You Doing The Rest Of Your Life
TTITLE4=Always
TTITLE5=Crazy
TTITLE6=Lancelot
TTITLE7=Born Free
TTITLE8=Sweet Prince
TTITLE9=By The Time I Get To Pheonix
TTITLE10=Robina
TTITLE11=Smoke Gets In Your Eyes
EXTD=
EXTT0=
EXTT1=
EXTT2=
EXTT3=
EXTT4=
EXTT5=
EXTT6=
EXTT7=
EXTT8=
EXTT9=
EXTT10=
EXTT11=
PLAYORDER=
